<?xml version="1.0" encoding="UTF-8" standalone="no"?>
<!-- Created with Inkscape (http://www.inkscape.org/) -->

<svg
   xmlns:dc="http://purl.org/dc/elements/1.1/"
   xmlns:cc="http://creativecommons.org/ns#"
   xmlns:rdf="http://www.w3.org/1999/02/22-rdf-syntax-ns#"
   xmlns:svg="http://www.w3.org/2000/svg"
   xmlns="http://www.w3.org/2000/svg"
   xmlns:sodipodi="http://sodipodi.sourceforge.net/DTD/sodipodi-0.dtd"
   xmlns:inkscape="http://www.inkscape.org/namespaces/inkscape"
   id="svg2"
   version="1.1"
   inkscape:version="0.91 r13725"
   xml:space="preserve"
   width="1996.3939"
   height="673.67749"
   viewBox="0 0 1996.3939 673.67749"
   sodipodi:docname="logo.svg"><metadata
     id="metadata8"><rdf:RDF><cc:Work
         rdf:about=""><dc:format>image/svg+xml</dc:format><dc:type
           rdf:resource="http://purl.org/dc/dcmitype/StillImage" /><dc:title></dc:title></cc:Work></rdf:RDF></metadata><defs
     id="defs6"><clipPath
       clipPathUnits="userSpaceOnUse"
       id="clipPath16"><path
         d="m 114.161,464.568 c 0,-148.42 121.051,-269.472 269.471,-269.472 l 0,0 c 148.419,0 269.47,121.052 269.47,269.472 l 0,0 c 0,148.418 -121.051,269.47 -269.47,269.47 l 0,0 c -148.42,0 -269.471,-121.052 -269.471,-269.47"
         id="path18"
         inkscape:connector-curvature="0" /></clipPath><linearGradient
       x1="0"
       y1="0"
       x2="1"
       y2="0"
       gradientUnits="userSpaceOnUse"
       gradientTransform="matrix(4e-6,339.39926,-339.39926,4e-6,336.83732,555.85194)"
       spreadMethod="pad"
       id="linearGradient24"><stop
         style="stop-opacity:1;stop-color:#e69a00"
         offset="0"
         id="stop26" /><stop
         style="stop-opacity:1;stop-color:#12100d"
         offset="1"
         id="stop28" /></linearGradient><clipPath
       clipPathUnits="userSpaceOnUse"
       id="clipPath36"><path
         d="m 0,925.5 1792,0 L 1792,0 0,0 0,925.5 Z"
         id="path38"
         inkscape:connector-curvature="0" /></clipPath><clipPath
       clipPathUnits="userSpaceOnUse"
       id="clipPath92"><path
         d="m 195.002,464.568 c 0,-103.894 84.736,-188.631 188.63,-188.631 l 0,0 c 103.893,0 188.629,84.737 188.629,188.631 l 0,0 c 0,103.893 -84.736,188.63 -188.629,188.63 l 0,0 c -103.894,0 -188.63,-84.737 -188.63,-188.63"
         id="path94"
         inkscape:connector-curvature="0" /></clipPath><linearGradient
       x1="0"
       y1="0"
       x2="1"
       y2="0"
       gradientUnits="userSpaceOnUse"
       gradientTransform="matrix(3.1e-6,-260.08319,-260.08319,-3.1e-6,383.63184,434.23633)"
       spreadMethod="pad"
       id="linearGradient100"><stop
         style="stop-opacity:1;stop-color:#ffffff"
         offset="0"
         id="stop102" /><stop
         style="stop-opacity:1;stop-color:#ffffff"
         offset="1"
         id="stop104" /></linearGradient><clipPath
       clipPathUnits="userSpaceOnUse"
       id="clipPath112"><path
         d="m 195.002,464.568 c 0,-103.894 84.736,-188.631 188.63,-188.631 l 0,0 c 103.893,0 188.629,84.737 188.629,188.631 l 0,0 c 0,103.893 -84.736,188.63 -188.629,188.63 l 0,0 c -103.894,0 -188.63,-84.737 -188.63,-188.63"
         id="path114"
         inkscape:connector-curvature="0" /></clipPath><linearGradient
       x1="0"
       y1="0"
       x2="1"
       y2="0"
       gradientUnits="userSpaceOnUse"
       gradientTransform="matrix(3.1e-6,-260.08319,-260.08319,-3.1e-6,383.63184,434.23633)"
       spreadMethod="pad"
       id="linearGradient120"><stop
         style="stop-opacity:1;stop-color:#ffffff"
         offset="0"
         id="stop122" /><stop
         style="stop-opacity:1;stop-color:#d4d1d2"
         offset="1"
         id="stop124" /></linearGradient><clipPath
       clipPathUnits="userSpaceOnUse"
       id="clipPath132"><path
         d="m 0,925.5 1792,0 L 1792,0 0,0 0,925.5 Z"
         id="path134"
         inkscape:connector-curvature="0" /></clipPath></defs><sodipodi:namedview
     pagecolor="#ffffff"
     bordercolor="#666666"
     borderopacity="1"
     objecttolerance="10"
     gridtolerance="10"
     guidetolerance="10"
     inkscape:pageopacity="0"
     inkscape:pageshadow="2"
     inkscape:window-width="1366"
     inkscape:window-height="717"
     id="namedview4"
     showgrid="false"
     fit-margin-top="0"
     fit-margin-left="0"
     fit-margin-right="0"
     fit-margin-bottom="0"
     inkscape:zoom="0.31428571"
     inkscape:cx="1110.0956"
     inkscape:cy="231.62841"
     inkscape:window-x="0"
     inkscape:window-y="0"
     inkscape:window-maximized="1"
     inkscape:current-layer="g10" /><g
     id="g10"
     inkscape:groupmode="layer"
     inkscape:label="LOGO EPL DEFINITIVO"
     transform="matrix(1.25,0,0,-1.25,-142.70125,917.5475)"><path
       style="fill:url(#linearGradient24);stroke:none"
       d="M 336.83789 0 C 151.31289 0 7.5791225e-14 151.31539 0 336.83789 C 0 522.36289 151.31289 673.67773 336.83789 673.67773 C 522.36164 673.67773 673.67578 522.36289 673.67578 336.83789 C 673.67578 151.31539 522.36164 0 336.83789 0 z M 336.83789 101.05078 C 466.70414 101.05078 572.625 206.97164 572.625 336.83789 C 572.625 466.70539 466.70414 572.62695 336.83789 572.62695 C 206.97039 572.62695 101.05078 466.70539 101.05078 336.83789 C 101.05078 206.97164 206.97039 101.05078 336.83789 101.05078 z "
       transform="matrix(0.8,0,0,-0.8,114.161,734.038)"
       id="path30" /><g
       id="g40"
       transform="translate(272.7988,277.1016)"
       style="fill:#000000"><path
         d="m 0,0 c 1.324,-0.75 2.189,-1.857 2.593,-3.332 0.403,-1.475 0.232,-2.871 -0.512,-4.182 -0.736,-1.302 -1.839,-2.156 -3.313,-2.56 -1.473,-0.403 -2.871,-0.231 -4.182,0.511 -1.291,0.731 -2.146,1.833 -2.558,3.305 -0.411,1.471 -0.247,2.858 0.492,4.158 0.742,1.313 1.851,2.178 3.322,2.59 C -2.686,0.902 -1.301,0.736 0,0"
         style="fill:#000000;fill-opacity:1;fill-rule:evenodd;stroke:none"
         id="path42"
         inkscape:connector-curvature="0" /></g><g
       id="g44"
       transform="translate(298.8027,269.6934)"
       style="fill:#000000"><path
         d="m 0,0 4.866,-1.961 -7.148,-17.74 6.63,-2.674 L 2.386,-27.24 -9.111,-22.605 0,0 Z"
         style="fill:#000000;fill-opacity:1;fill-rule:evenodd;stroke:none"
         id="path46"
         inkscape:connector-curvature="0" /></g><g
       id="g48"
       transform="translate(322.7891,261.082)"
       style="fill:#000000"><path
         d="M 0,0 5.041,-1.455 -1.716,-24.873 -6.759,-23.418 0,0 Z"
         style="fill:#000000;fill-opacity:1;fill-rule:evenodd;stroke:none"
         id="path50"
         inkscape:connector-curvature="0" /></g><g
       id="g52"
       transform="translate(344.5684,242.0527)"
       style="fill:#000000"><path
         d="m 0,0 -1.136,-6.633 1.867,-0.32 c 2.857,-0.488 4.459,0.312 4.814,2.392 0.195,1.129 -0.008,2.053 -0.598,2.778 -0.59,0.722 -1.53,1.199 -2.824,1.422 L 0,0 Z M 1.604,9.371 0.699,4.086 1.893,3.883 C 2.772,3.73 3.559,3.887 4.253,4.34 4.949,4.801 5.367,5.436 5.508,6.26 5.62,6.922 5.424,7.535 4.914,8.092 4.406,8.654 3.716,9.01 2.834,9.16 l -1.23,0.211 z m -4.487,4.895 7.009,-1.2 C 7.051,12.566 8.945,11.613 9.81,10.211 10.675,8.803 10.967,7.279 10.688,5.645 10.51,4.605 10.166,3.758 9.649,3.115 9.14,2.463 8.385,1.846 7.391,1.264 c 1.57,-0.86 2.6,-1.905 3.103,-3.135 0.504,-1.233 0.643,-2.483 0.426,-3.75 -0.378,-2.207 -1.428,-3.795 -3.149,-4.766 -1.73,-0.97 -3.964,-1.218 -6.707,-0.75 l -8.058,1.379 4.111,24.024 z"
         style="fill:#000000;fill-opacity:1;fill-rule:evenodd;stroke:none"
         id="path54"
         inkscape:connector-curvature="0" /></g><g
       id="g56"
       transform="translate(370.1396,252.4863)"
       style="fill:#000000"><path
         d="m 0,0 13.726,-0.25 -0.088,-4.828 -8.48,0.154 -0.089,-4.904 8.479,-0.154 -0.087,-4.752 -8.479,0.154 -0.091,-5.057 8.477,-0.154 -0.088,-4.83 -13.724,0.252 L 0,0 Z"
         style="fill:#000000;fill-opacity:1;fill-rule:evenodd;stroke:none"
         id="path58"
         inkscape:connector-curvature="0" /></g><g
       id="g60"
       transform="translate(402.5088,248.498)"
       style="fill:#000000"><path
         d="m 0,0 0.844,-6.295 1.143,0.154 c 2.758,0.37 3.984,1.666 3.687,3.883 C 5.552,-1.346 5.097,-0.672 4.31,-0.234 3.521,0.203 2.488,0.334 1.219,0.164 L 0,0 Z m -5.776,3.6 7.97,1.068 C 4.618,4.992 6.619,4.615 8.197,3.529 9.775,2.443 10.711,0.811 11.001,-1.357 11.168,-2.594 11.02,-3.926 10.552,-5.35 10.083,-6.768 9.03,-7.979 7.393,-8.971 l 8.122,-9.168 -5.967,-0.798 -7.534,8.503 -0.604,-0.08 1.253,-9.347 -5.2,-0.698 L -5.776,3.6 Z"
         style="fill:#000000;fill-opacity:1;fill-rule:evenodd;stroke:none"
         id="path62"
         inkscape:connector-curvature="0" /></g><g
       id="g64"
       transform="translate(434.5527,253.5937)"
       style="fill:#000000"><path
         d="m 0,0 3.35,-14.682 2.034,0.465 c 2.112,0.483 3.712,1.453 4.809,2.906 1.091,1.457 1.334,3.522 0.723,6.204 C 10.561,-3.551 9.918,-2.248 8.99,-1.199 8.06,-0.145 6.929,0.457 5.589,0.6 4.25,0.742 3.014,0.687 1.891,0.432 L 0,0 Z M -6.14,3.318 1.973,5.17 c 3.465,0.791 6.502,0.332 9.112,-1.367 2.612,-1.703 4.325,-4.336 5.141,-7.907 0.818,-3.583 0.385,-6.705 -1.302,-9.365 -1.689,-2.654 -4.34,-4.396 -7.96,-5.222 l -7.68,-1.754 -5.424,23.763 z"
         style="fill:#000000;fill-opacity:1;fill-rule:evenodd;stroke:none"
         id="path66"
         inkscape:connector-curvature="0" /></g><g
       id="g68"
       transform="translate(469.1641,261.3594)"
       style="fill:#000000"><path
         d="M 0,0 0.379,-7.729 5.651,-5.316 0,0 Z M -5.205,6.4 -1.472,8.109 17.691,-9.93 12.885,-12.129 9.117,-8.582 0.609,-12.473 0.862,-17.627 -3.922,-19.814 -5.205,6.4 Z"
         style="fill:#000000;fill-opacity:1;fill-rule:evenodd;stroke:none"
         id="path70"
         inkscape:connector-curvature="0" /></g><g
       id="g72"
       transform="translate(494.6973,278.1465)"
       style="fill:#000000"><path
         d="m 0,0 8.058,-12.721 1.761,1.116 c 1.83,1.16 3.014,2.607 3.565,4.343 0.542,1.739 0.083,3.766 -1.389,6.09 C 11.142,0.178 10.101,1.191 8.876,1.871 7.646,2.555 6.38,2.744 5.07,2.432 3.76,2.119 2.613,1.656 1.639,1.037 L 0,0 Z m -6.895,1.08 7.031,4.453 c 3.004,1.901 6.017,2.483 9.046,1.752 3.032,-0.734 5.523,-2.644 7.484,-5.738 1.967,-3.108 2.602,-6.193 1.897,-9.264 -0.707,-3.066 -2.624,-5.594 -5.761,-7.58 L 6.146,-19.512 -6.895,1.08 Z"
         style="fill:#000000;fill-opacity:1;fill-rule:evenodd;stroke:none"
         id="path74"
         inkscape:connector-curvature="0" /></g><g
       id="g76"
       transform="translate(514.9512,297.3418)"
       style="fill:#000000"><path
         d="m 0,0 10.315,9.059 3.187,-3.631 -6.372,-5.594 3.236,-3.686 6.371,5.594 3.136,-3.572 -6.371,-5.594 3.337,-3.801 6.372,5.594 L 26.396,-9.26 16.081,-18.316 0,0 Z"
         style="fill:#000000;fill-opacity:1;fill-rule:evenodd;stroke:none"
         id="path78"
         inkscape:connector-curvature="0" /></g><g
       id="g80"
       transform="translate(547.3096,320.8789)"
       style="fill:#000000"><path
         d="M 0,0 C 0.991,1.15 2.248,1.785 3.772,1.895 5.297,2.004 6.633,1.564 7.775,0.58 8.908,-0.396 9.532,-1.645 9.642,-3.168 9.75,-4.693 9.312,-6.029 8.326,-7.172 7.358,-8.297 6.111,-8.918 4.588,-9.037 3.064,-9.154 1.738,-8.725 0.604,-7.748 -0.539,-6.764 -1.172,-5.508 -1.289,-3.984 -1.408,-2.461 -0.976,-1.133 0,0"
         style="fill:#000000;fill-opacity:1;fill-rule:evenodd;stroke:none"
         id="path82"
         inkscape:connector-curvature="0" /></g><path
       style="fill:#f57d00;fill-opacity:1;fill-rule:evenodd;stroke:none"
       d="M 655.00586 226.04492 C 625.12313 240.84036 594.14562 254.77864 562.28516 267.82617 C 569.00002 289.66911 572.625 312.84297 572.625 336.83789 C 572.625 348.0943 571.81156 359.16458 570.27344 370.00781 C 605.36265 355.91793 639.78877 340.77411 673.50391 324.625 C 667.30766 289.5975 666.18961 260.65117 655.00586 226.04492 z M 105.96289 384.74219 C 95.634602 385.99573 85.30713 387.16426 74.986328 388.23633 C 60.601328 389.72883 45.297812 391.09789 29.101562 392.33789 C 21.109062 392.95039 13.1275 393.50375 5.15625 394 C 20.47875 430.51375 27.380313 461.75586 38.382812 493.34961 C 53.877812 492.16336 70.347188 490.66531 87.804688 488.85156 C 108.88722 486.66197 129.83716 484.11065 150.65234 481.21875 C 128.9725 453.34078 113.39349 420.50632 105.96289 384.74219 z M 38.382812 493.34961 C 33.469062 493.72836 43.289062 493.01586 38.382812 493.34961 z "
       transform="matrix(0.8,0,0,-0.8,114.161,734.038)"
       id="path86" /><g
       id="g136"
       transform="translate(154.7061,524.4434)"
       style="fill:#000000"><path
         d="M 0,0 3.703,13.217 8.354,11.914 6.065,3.75 10.789,2.426 13.077,10.59 17.654,9.308 15.366,1.143 20.235,-0.222 22.523,7.943 27.174,6.64 23.47,-6.577 0,0 Z"
         style="fill:#000000;fill-opacity:1;fill-rule:evenodd;stroke:none"
         id="path138"
         inkscape:connector-curvature="0" /></g><g
       id="g140"
       transform="translate(172.9395,567.4595)"
       style="fill:#000000"><path
         d="m 0,0 1.92,-4.458 c -1.638,-1.159 -2.614,-2.087 -2.927,-2.78 -0.243,-0.537 -0.25,-1.091 -0.027,-1.658 0.224,-0.566 0.61,-0.971 1.159,-1.219 1.092,-0.494 2.488,0.071 4.195,1.692 1.282,1.173 2.347,2.019 3.189,2.543 0.842,0.523 1.819,0.839 2.944,0.943 1.118,0.105 2.197,-0.077 3.237,-0.547 1.912,-0.865 3.218,-2.388 3.93,-4.567 0.717,-2.182 0.597,-4.325 -0.354,-6.427 -1.045,-2.31 -3.16,-4.094 -6.35,-5.363 l -2.249,4.808 c 2.099,0.762 3.424,1.755 3.985,2.996 0.262,0.578 0.258,1.247 -0.009,2.009 -0.26,0.764 -0.67,1.269 -1.231,1.522 -1.142,0.518 -2.724,-0.241 -4.733,-2.282 -1.152,-1.162 -2.086,-1.936 -2.799,-2.33 -0.714,-0.393 -1.595,-0.6 -2.626,-0.62 -1.037,-0.018 -1.995,0.172 -2.89,0.577 -1.975,0.893 -3.281,2.264 -3.928,4.107 -0.647,1.844 -0.498,3.807 0.446,5.892 C -4.002,-2.697 -2.3,-0.977 0,0"
         style="fill:#000000;fill-opacity:1;fill-rule:evenodd;stroke:none"
         id="path142"
         inkscape:connector-curvature="0" /></g><g
       id="g144"
       transform="translate(179.1133,583.8843)"
       style="fill:#000000"><path
         d="M 0,0 8.802,13.825 13.163,11.048 10.161,6.333 26.359,-3.98 23.542,-8.407 7.343,1.906 4.361,-2.777 0,0 Z"
         style="fill:#000000;fill-opacity:1;fill-rule:evenodd;stroke:none"
         id="path146"
         inkscape:connector-curvature="0" /></g><g
       id="g148"
       transform="translate(198.8867,612.5757)"
       style="fill:#000000"><path
         d="m 0,0 3.396,3.901 11.243,-9.786 c 1.043,-0.906 2.137,-1.347 3.276,-1.322 1.144,0.03 2.125,0.52 2.948,1.467 0.949,1.09 1.362,2.21 1.244,3.37 -0.116,1.151 -0.756,2.239 -1.922,3.254 l -11.049,9.615 3.395,3.9 11.908,-10.363 c 1.042,-0.907 1.89,-2.124 2.548,-3.646 0.65,-1.522 0.786,-3.104 0.402,-4.752 -0.383,-1.648 -1.18,-3.172 -2.391,-4.564 -2.201,-2.529 -4.51,-3.762 -6.936,-3.711 -2.423,0.053 -4.41,0.755 -5.958,2.103 L 0,0 Z"
         style="fill:#000000;fill-opacity:1;fill-rule:evenodd;stroke:none"
         id="path150"
         inkscape:connector-curvature="0" /></g><g
       id="g152"
       transform="translate(232.541,640.6167)"
       style="fill:#000000"><path
         d="M 0,0 9.875,-11.368 11.45,-10 c 1.636,1.421 2.589,3.029 2.873,4.829 0.274,1.8 -0.484,3.735 -2.288,5.812 C 10.988,1.847 9.808,2.694 8.494,3.181 7.177,3.673 5.897,3.669 4.647,3.164 3.4,2.658 2.335,2.028 1.465,1.271 L 0,0 Z m -6.979,0.032 6.283,5.457 c 2.684,2.332 5.577,3.359 8.68,3.092 3.108,-0.273 5.858,-1.787 8.261,-4.552 2.41,-2.775 3.501,-5.731 3.267,-8.873 -0.239,-3.137 -1.755,-5.924 -4.559,-8.359 L 9.007,-18.369 -6.979,0.032 Z"
         style="fill:#000000;fill-opacity:1;fill-rule:evenodd;stroke:none"
         id="path154"
         inkscape:connector-curvature="0" /></g><g
       id="g156"
       transform="translate(268.3643,662.0381)"
       style="fill:#000000"><path
         d="M 0,0 1.108,-7.659 6.13,-4.759 0,0 Z m -5.788,5.878 3.556,2.054 20.784,-16.142 -4.577,-2.644 -4.087,3.173 -8.1,-4.679 0.74,-5.106 -4.555,-2.631 -3.761,25.975 z"
         style="fill:#000000;fill-opacity:1;fill-rule:evenodd;stroke:none"
         id="path158"
         inkscape:connector-curvature="0" /></g><g
       id="g160"
       transform="translate(306.5576,688.5659)"
       style="fill:#000000"><path
         d="m 0,0 4.765,1.909 9.065,-22.626 -4.719,-1.89 -16.257,10.486 5.869,-14.649 -4.87,-1.951 -9.066,22.626 4.812,1.928 L 5.827,-14.542 0,0 Z"
         style="fill:#000000;fill-opacity:1;fill-rule:evenodd;stroke:none"
         id="path162"
         inkscape:connector-curvature="0" /></g><g
       id="g164"
       transform="translate(330.1895,695.2773)"
       style="fill:#000000"><path
         d="m 0,0 16.117,2.974 0.939,-5.085 -5.497,-1.015 3.485,-18.883 -5.16,-0.952 L 6.398,-4.078 0.938,-5.085 0,0 Z"
         style="fill:#000000;fill-opacity:1;fill-rule:evenodd;stroke:none"
         id="path166"
         inkscape:connector-curvature="0" /></g><g
       id="g168"
       transform="translate(363.6533,700.2563)"
       style="fill:#000000"><path
         d="m 0,0 13.687,1.042 0.366,-4.815 -8.454,-0.644 0.372,-4.891 8.455,0.644 0.361,-4.739 -8.456,-0.644 0.385,-5.043 8.454,0.644 0.367,-4.815 L 1.85,-24.304 0,0 Z"
         style="fill:#000000;fill-opacity:1;fill-rule:evenodd;stroke:none"
         id="path170"
         inkscape:connector-curvature="0" /></g><g
       id="g172"
       transform="translate(410.3145,697.5469)"
       style="fill:#000000"><path
         d="m 0,0 -3.532,-3.329 c -1.65,1.143 -2.856,1.743 -3.614,1.801 -0.587,0.045 -1.11,-0.138 -1.566,-0.542 -0.458,-0.404 -0.705,-0.906 -0.751,-1.506 -0.091,-1.195 0.917,-2.314 3.024,-3.364 1.541,-0.804 2.7,-1.515 3.48,-2.127 0.779,-0.612 1.41,-1.423 1.892,-2.445 0.482,-1.016 0.679,-2.092 0.593,-3.229 -0.159,-2.092 -1.143,-3.841 -2.949,-5.254 -1.805,-1.42 -3.86,-2.039 -6.16,-1.864 -2.527,0.192 -4.927,1.57 -7.211,4.133 l 3.75,3.758 c 1.434,-1.711 2.819,-2.618 4.178,-2.721 0.633,-0.048 1.261,0.184 1.885,0.695 0.627,0.505 0.963,1.064 1.009,1.678 0.096,1.251 -1.158,2.478 -3.762,3.668 -1.486,0.684 -2.533,1.298 -3.147,1.834 -0.613,0.536 -1.109,1.293 -1.48,2.255 -0.371,0.969 -0.52,1.934 -0.446,2.913 0.164,2.161 1.006,3.858 2.518,5.096 1.511,1.239 3.408,1.768 5.688,1.595 C -3.902,2.839 -1.704,1.826 0,0"
         style="fill:#000000;fill-opacity:1;fill-rule:evenodd;stroke:none"
         id="path174"
         inkscape:connector-curvature="0" /></g><g
       id="g176"
       transform="translate(442.0156,688.2646)"
       style="fill:#000000"><path
         d="m 0,0 c 1.464,-0.41 2.569,-1.279 3.315,-2.614 0.746,-1.334 0.914,-2.73 0.506,-4.183 -0.403,-1.44 -1.269,-2.533 -2.603,-3.278 -1.335,-0.745 -2.732,-0.913 -4.184,-0.506 -1.428,0.4 -2.521,1.266 -3.274,2.596 -0.752,1.33 -0.924,2.714 -0.52,4.154 0.406,1.452 1.276,2.558 2.606,3.311 C -2.824,0.232 -1.44,0.404 0,0"
         style="fill:#000000;fill-opacity:1;fill-rule:evenodd;stroke:none"
         id="path178"
         inkscape:connector-curvature="0" /></g><g
       id="g180"
       transform="translate(477.8389,676.7549)"
       style="fill:#000000"><path
         d="m 0,0 -2.57,-5.681 1.836,-0.831 c 0.791,-0.358 1.597,-0.375 2.421,-0.059 0.822,0.324 1.414,0.878 1.77,1.668 0.408,0.901 0.407,1.743 -0.004,2.528 -0.411,0.783 -1.198,1.438 -2.371,1.969 L 0,0 Z M -2.894,6.151 4.7,2.716 C 6.743,1.791 8.12,0.452 8.831,-1.31 9.548,-3.067 9.46,-4.919 8.58,-6.865 8.002,-8.141 7.147,-9.215 6.017,-10.087 4.888,-10.954 3.574,-11.396 2.076,-11.4 c -1.489,-10e-4 -2.679,0.182 -3.567,0.556 l -2.797,1.182 -3.871,-8.557 -4.781,2.162 10.046,22.208 z"
         style="fill:#000000;fill-opacity:1;fill-rule:evenodd;stroke:none"
         id="path182"
         inkscape:connector-curvature="0" /></g><g
       id="g184"
       transform="translate(506.0459,667.1157)"
       style="fill:#000000"><path
         d="m 0,0 11.58,-7.373 -2.595,-4.073 -7.152,4.554 -2.635,-4.138 7.154,-4.554 -2.553,-4.009 -7.153,4.553 -2.716,-4.265 7.153,-4.554 -2.595,-4.074 -11.579,7.372 L 0,0 Z"
         style="fill:#000000;fill-opacity:1;fill-rule:evenodd;stroke:none"
         id="path186"
         inkscape:connector-curvature="0" /></g><g
       id="g188"
       transform="translate(533.0713,648.0508)"
       style="fill:#000000"><path
         d="m 0,0 3.981,-3.418 -12.457,-14.513 5.424,-4.656 -3.418,-3.982 -9.406,8.073 L 0,0 Z"
         style="fill:#000000;fill-opacity:1;fill-rule:evenodd;stroke:none"
         id="path190"
         inkscape:connector-curvature="0" /></g><g
       id="g192"
       transform="translate(556.7949,613.7603)"
       style="fill:#000000"><path
         d="M 0,0 -7.325,-2.495 -3.553,-6.899 0,0 Z M 4.717,6.769 7.389,3.65 -4.665,-19.744 l -3.439,4.014 2.369,4.599 -6.086,7.104 -4.884,-1.663 -3.422,3.994 24.844,8.465 z"
         style="fill:#000000;fill-opacity:1;fill-rule:evenodd;stroke:none"
         id="path194"
         inkscape:connector-curvature="0" /></g><g
       id="g196"
       transform="translate(429.4453,592.0049)"
       style="fill:#000000"><path
         d="M 0,0 0,-0.008 0.001,0 0,0 Z"
         style="fill:#000000;fill-opacity:1;fill-rule:evenodd;stroke:none"
         id="path198"
         inkscape:connector-curvature="0" /></g><g
       id="g200"
       transform="translate(505.666,620.2544)"
       style="fill:#000000"><path
         d="m 0,0 c -4.002,-12.199 -20.576,-15.712 -20.707,-22.714 -0.049,-2.279 0.761,-5.908 4.172,-6.153 -0.641,-1.144 -1.627,-2.454 -2.896,-3.042 l 0.274,-0.61 c 1.334,0.961 2.295,2.383 2.888,3.514 2.075,-3.408 9.331,-2.911 13.125,0.111 C 5.128,-22.304 0,0 0,0"
         style="fill:#000000;fill-opacity:1;fill-rule:evenodd;stroke:none"
         id="path202"
         inkscape:connector-curvature="0" /></g><g
       id="g204"
       transform="translate(460.3975,601.6748)"
       style="fill:#000000"><path
         d="m 0,0 c -0.294,-0.96 -0.384,-2.583 0.975,-3.144 -0.95,-0.232 -2.116,-0.343 -3.061,0.022 l -0.187,-0.481 c 1.234,-0.226 2.517,0 3.461,0.271 0.537,-1.698 3.7,-2.356 5.702,-1.513 4.413,1.856 4.921,12.199 4.921,12.199 C 8.569,2.531 0.918,3.035 0,0"
         style="fill:#000000;fill-opacity:1;fill-rule:evenodd;stroke:none"
         id="path206"
         inkscape:connector-curvature="0" /></g><g
       id="g208"
       transform="translate(477.457,574.1196)"
       style="fill:#000000"><path
         d="m 0,0 c -1.28,-0.989 -2.943,-3.057 -1.517,-5.06 -1.581,0.693 -3.69,1.969 -4.627,3.766 l -0.753,-0.385 c 1.521,-1.912 3.836,-3.133 5.335,-3.75 C -2.273,-8.057 1.1,-11.652 4.353,-12.39 11.627,-14.032 21.63,-1.366 21.63,-1.366 13.158,-4.552 3.912,3.013 0,0"
         style="fill:#000000;fill-opacity:1;fill-rule:evenodd;stroke:none"
         id="path210"
         inkscape:connector-curvature="0" /></g><g
       id="g212"
       transform="translate(145.2139,338.5059)"><path
         d="m 0,0 c 136.38,67.521 288.821,112.834 451.674,129.75 11.507,1.195 23.749,2.289 36.707,3.281 6.394,0.49 12.779,0.934 19.156,1.33 -0.85,28.072 -5.996,55.057 -14.798,80.335 -3.926,-0.268 -7.853,-0.551 -11.785,-0.852 -12.394,-0.95 -25.57,-2.149 -39.536,-3.599 C 273.045,192.756 115.057,146.977 -27.141,78.861 -22.185,50.842 -12.896,24.318 0,0"
         style="fill:#e59908;fill-opacity:1;fill-rule:evenodd;stroke:none"
         id="path214"
         inkscape:connector-curvature="0" /></g><g
       id="g216"
       transform="translate(367.2393,417.4102)"
       style="fill:#000000"><path
         d="m 0,0 c -4.44,1.27 -8.219,3.201 -11.065,4.971 0.176,0.601 0.345,1.166 0.459,1.586 0.373,1.259 0.794,2.439 1.359,3.425 3.067,0.135 4.088,-1.384 4.6,-3.144 -0.135,0.799 -0.106,1.553 0.012,2.271 C -1.209,4.326 2.094,-1.057 0,0 M 9.905,3.42 C 3.9,8.457 -0.245,14.191 -2.778,18.367 c -0.234,0.752 -0.608,1.57 -1.205,2.487 1.622,-2.413 2.435,0.468 4.397,0.773 -1.096,0.873 -2.301,2.252 -2.022,2.271 -0.045,0.432 -0.06,0.885 -0.049,1.34 0.708,0.215 1.461,0.471 2.233,0.768 C 0.572,25.941 0.554,25.877 0.55,25.811 0.53,24.982 0.915,24.098 1.675,23.746 1.258,24.775 1.209,25.561 1.268,26.289 2.827,26.943 4.424,27.768 5.797,28.818 7.052,29.783 13.508,-0.996 9.905,3.42 m 16.593,-5.873 c -0.057,-2.74 8.731,14.107 1.46,10.734 -2.53,-1.172 -4.031,-1.304 -4.031,-1.304 0,0 1.411,-2.62 2.571,-9.43 m -43.37,-136.094 c 10.798,-1.922 21.915,-2.926 33.265,-2.926 10.211,0 20.229,0.823 30,2.385 0.12,0.141 0.111,0.287 -0.061,0.438 -10.372,4.228 -13.324,89.3 -14.149,130.414 1.834,0.349 3.637,0.785 5.425,1.256 0.768,-0.022 2.866,0.625 3.645,0.625 6.28,0 10.248,1.705 16.582,1.57 0.096,-0.123 0.194,-0.256 0.289,-0.391 0.211,0.207 0.402,0.414 0.576,0.61 0.971,0.267 1.928,0.552 2.869,0.855 0.071,-0.365 0.143,-0.771 0.214,-1.225 0.136,0.27 0.347,0.776 0.554,1.172 0.059,0.114 0.136,0.229 0.199,0.354 0.344,0.117 0.686,0.236 1.021,0.361 -0.071,-1.763 -0.33,-3.226 -1.612,-3.263 L 61.38,-8.994 c 4.459,-1.024 10.768,-1.766 12.215,6.16 0.639,-5.646 0.813,-1.047 2.684,-3.898 0.554,0.701 -0.163,0.847 -0.457,1.187 0.866,4.988 2.23,0.094 3.194,1.016 l -0.214,-1.049 c 0.783,1.308 1.503,2.639 2.187,3.965 0.587,-0.633 1.494,-1.555 1.953,-3.231 l -0.836,3.865 c 1.42,0.346 1.801,-4.785 3.43,-3.332 l -1.084,2.78 c 1.611,-1.502 2.327,2.967 3.721,-1.119 0.281,-0.805 -0.046,-0.53 -0.422,-0.764 1.717,-2.65 2.82,-1.815 3.765,-0.576 0.956,1.244 1.744,2.881 3.298,1.965 L 92.1,3.811 c 1.246,2.605 1.66,-0.791 2.372,-2.924 1.337,0.56 2.393,-1.278 4.475,-1.172 0.25,1.875 -0.469,2.363 -0.919,4.187 l 2.381,-0.64 0.207,-2.821 c -0.189,4.063 1.398,4.541 3.004,4.975 1.687,0.447 3.355,0.84 2.086,5.043 1.845,-1.057 1.024,-3.832 2.121,-4.467 2.556,-0.935 3.534,1.422 4.318,3.635 0.813,2.225 1.449,4.309 3.979,3.186 3.226,-0.53 5.332,1.013 7.247,2.771 1.936,1.773 3.686,3.75 6.657,4.428 l -1.246,1.193 c 1.219,0.504 2.432,1.031 3.641,1.59 -2.018,3.418 1.014,3.994 -1.284,8.146 0.925,-1.013 2.695,-2.183 3.2,-3.121 0.667,1.543 0.324,4.034 2.695,3.242 l 0.787,-1.363 c 3.103,1.981 6.247,6.008 4.59,9.387 0.351,1.201 2.877,-0.547 4.804,-1.44 1.341,1.663 0.618,3.815 -0.87,6.676 0.852,0.008 1.713,0.028 3.343,-0.316 l -3.251,2.779 c 0.941,0.447 3.105,-1.533 4.393,-1.461 -1.39,2.678 -0.716,4.25 0.422,5.541 1.126,1.285 2.729,2.28 3.054,3.428 l -2.053,0.521 c -1.122,1.497 2.286,2.11 3.81,0.243 2.06,1.742 1.16,4.058 0.041,6.474 -1.121,2.448 -2.431,4.951 -1.197,7.84 3.819,-0.432 3.605,1.172 3.43,2.707 -0.178,1.551 -0.316,3.035 3.97,3 -0.89,1.598 -0.464,2.758 -0.426,3.875 0.052,1.108 -0.29,2.172 -2.753,3.253 0.865,0.034 1.234,0.286 1.367,-0.185 3.241,1.061 0.798,5.305 -1.683,8.038 l 2.545,0.441 c -2.836,0.283 -3.987,1.698 -5.233,3.051 -1.232,1.351 -2.565,2.624 -5.377,2.415 1.114,0.597 2.409,0.057 3.475,-0.123 2.399,1.336 1.603,1.912 0.298,2.316 -1.291,0.417 -3.096,0.643 -2.828,1.743 1.349,0.283 2.654,1.362 3.746,1.272 1.758,4.323 -1.231,8.468 -4.969,11.691 -1.871,1.648 -3.931,3.106 -5.761,4.653 -1.841,1.563 -3.472,3.227 -4.707,5.494 -0.978,0.892 -1.663,-0.456 -2.424,-1.687 -0.765,-1.235 -1.592,-2.384 -2.688,-1.341 0.441,1.416 1.551,2.388 2.469,3.235 0.912,0.839 1.631,1.607 1.039,2.729 -3.271,-2.014 -3.248,-1.144 -4.89,0.155 1.235,1.43 1.516,2.703 3.506,3.016 0.037,1.331 -1.743,1.08 -3.434,1.02 -1.718,-0.061 -3.317,0.082 -3.6,2.692 -0.528,-1.642 -1.318,-2.398 -2.074,-3.167 -1.529,-1.039 -2.591,-0.779 -3.454,0.015 1.582,0.569 2.377,0.053 1.906,3.374 -0.516,-1.021 -1.374,-2.196 -2.371,-2.877 -0.333,0.407 -0.637,0.881 -0.927,1.371 -1.032,1.75 -1.822,3.588 -2.282,2.661 -0.407,0.437 -0.805,0.907 -1.088,1.442 -0.229,-0.629 -0.647,-1.219 -1.14,-1.683 -0.452,0.652 -0.662,1.586 -0.29,2.91 -0.745,-1.106 -1.476,-2.797 -2.237,-3.467 -0.125,0.106 -0.237,0.222 -0.332,0.362 l 0.748,2.469 c -0.367,-0.323 -0.789,-1.042 -1.191,-1.693 -0.306,0.598 -0.651,1.245 -1.397,1.656 0.011,-0.429 -0.007,-0.847 -0.007,-1.269 l -0.144,0.448 c 0.015,-0.712 0.065,-1.201 0.132,-1.532 -0.003,-0.595 0.012,-1.198 -0.003,-1.785 -0.437,-0.093 -0.9,-0.411 -1.3,-0.632 -0.07,-0.035 -0.132,-0.064 -0.196,-0.091 -0.335,0.064 -0.636,0.155 -0.894,0.275 -0.156,0.395 -0.215,1.111 -0.129,2.403 l 0.466,0.116 c -0.779,0.978 -1.589,1.942 -2.428,2.891 -0.093,-0.207 -0.185,-0.414 -0.279,-0.617 -0.262,1.262 -0.557,2.541 -1.177,3.52 0.605,0.497 1.358,0.632 2.058,0.47 l -1.389,2.223 c -0.469,0.745 -1.062,1.535 -1.418,2.082 -0.201,0.809 -0.464,1.227 -1.508,0.869 -0.274,-0.031 -0.629,-0.136 -1.095,-0.309 l 0.425,0.264 c -0.561,-0.075 -1.08,-0.185 -1.543,-0.339 -0.521,-0.095 -0.956,-0.263 -1.328,-0.49 -0.754,-0.455 -1.248,-1.133 -1.74,-1.818 -0.494,-0.67 -0.987,-1.336 -1.815,-1.656 -0.422,-0.155 -0.885,-0.256 -1.574,-0.144 -0.731,0.139 -1.593,0.449 -2.692,0.888 -0.701,1.3 1.77,3.389 3.457,5.325 1.69,1.893 2.451,3.892 -1.97,4.589 0.263,-2.454 -2.041,-3.162 -4.717,-3.346 -2.7,-0.166 -5.843,0.101 -7.775,0.414 2.413,1.505 4.955,2.902 7.6,4.156 -1.331,1.05 -4.847,0.794 -5.19,1.878 l -0.728,-1.584 c -1.584,-2.861 -2.47,-2.045 -3.592,-0.796 -1.106,1.235 -2.537,2.945 -4.612,1.684 3.404,3.351 5.137,4.48 6.487,5.813 1.372,1.311 2.406,2.79 4.846,6.528 -5.222,-2.736 -9.954,-5.368 -14.518,-2.733 2.127,1.656 4.36,3.246 6.703,4.736 -3.261,2.219 -8.029,1.548 -12.418,-0.428 -4.428,-1.967 -8.475,-5.245 -11.449,-7.714 1.069,2.408 1.167,4.137 1.326,5.764 0.172,1.615 0.406,3.165 2.033,5.097 -1.172,0.022 -2.339,0.004 -3.502,-0.018 l -0.87,-0.035 -0.434,-0.014 -0.217,-0.008 c -0.023,-0.007 -0.012,-0.015 -0.027,-0.027 -0.091,-0.079 -0.388,-0.139 -0.583,-0.214 0.285,0.907 0.541,1.815 0.768,2.722 l 0.312,1.371 c 0.018,0.127 0.018,0.259 0.037,0.38 -0.07,-0.261 -0.145,-0.498 -0.21,-0.708 -0.151,-0.44 -0.294,-0.773 -0.436,-1.036 -0.276,-0.519 -0.524,-0.782 -0.773,-1.099 -0.473,-0.617 -0.993,-1.46 -2.043,-5.087 0.659,0.957 0.83,1.803 1.339,1.54 -0.281,-1.02 -0.779,-2.533 -1.509,-3.798 -0.705,-1.24 -1.744,-2.383 -2.738,-2.368 -0.115,0.074 -0.236,0.18 -0.343,0.308 -0.312,2.192 1.1,2.202 1.808,3.426 0.185,0.283 0.331,0.628 0.445,1.061 l -0.042,-0.041 c -0.968,-1.027 -1.054,-0.346 -1.028,0.354 0.008,0.715 0.124,1.458 -0.855,0.878 -0.271,-1.129 -0.47,-2.301 -0.625,-3.539 -1.351,-1.601 -1.945,-1.186 -2.386,-0.584 -0.238,0.308 -0.414,0.666 -0.719,0.896 -0.419,0.312 -0.937,0.504 -1.68,0.358 1.567,0.049 2.583,0.617 3.198,1.619 0.726,0.911 1.027,2.243 1.331,3.603 l -0.195,-0.546 c -1.596,0.791 -5.015,-0.591 -4.748,2.089 1.415,1.461 2.865,2.9 4.348,4.315 -1.535,-0.768 -3.025,-1.562 -4.481,-2.405 -0.458,1.102 -0.105,3.313 1.928,3.448 -2.8,3.622 -4.25,0.689 -5.759,-1.826 -0.769,-1.265 -1.578,-2.458 -2.568,-2.764 -1.01,-0.3 -2.165,0.245 -3.909,2.421 0.969,2.015 2.625,3.001 4.58,0.641 1.923,3.038 2.231,5.259 -0.005,7.654 0.061,0.267 0.17,0.414 0.249,0.621 -5.223,2.387 -12.485,4.706 -16.81,1.498 -0.735,1.778 0.688,3.027 2.197,4.217 -2.867,1.743 -5.147,1.247 -7.311,0.926 -2.195,-0.334 -4.28,-0.507 -7.384,1.65 0.968,-0.807 1.914,-1.605 2.842,-2.436 -2.217,-1.412 -5.101,-2.215 -7.89,-2.225 -2.783,0.003 -5.512,0.802 -7.497,2.815 l 1.075,1.53 c -1.891,-1.883 -4.424,-1.33 -6.805,-0.784 -2.36,0.554 -4.548,1.096 -5.131,-0.55 1.938,-1.646 0.486,-3.026 3.19,-4.45 -3.014,-1.701 -5.883,-3.543 -8.581,-5.534 l -2.276,5.651 c -1.516,-1.115 -2.988,-2.266 -4.407,-3.457 0.989,-0.944 -0.803,-1.023 -2.609,-1.641 -1.808,-0.613 -3.607,-1.777 -2.5,-4.42 -3.54,0.82 -0.799,4.684 -0.592,7.277 -2.101,-2.771 -3.509,-0.572 -4.523,-4.927 -1.66,1.137 -3.373,2.224 -5.141,3.263 -1.845,-2.439 -3.531,-4.958 -5.046,-7.533 0.057,0.647 -0.576,0.666 -0.527,1.299 -0.282,-2.911 -2.523,-3.724 -4.645,-5.162 -2.091,-1.401 -4.078,-3.46 -2.918,-7.831 -0.038,0.365 -0.268,0.496 -0.469,0.786 0.597,-2.371 -0.612,-4.126 -2.235,-5.609 -0.806,-0.742 -1.729,-1.409 -2.564,-2.01 l -0.304,-0.212 c -0.012,0.069 -0.049,0.079 -0.121,0.061 l -0.325,-0.039 -0.518,-0.03 c 0.037,-0.899 0.885,-1.969 1.941,-2.932 1.055,-0.983 2.369,-1.815 3.183,-2.61 -0.848,-0.929 -1.398,-1.614 -1.775,-2.187 -0.059,-0.211 -0.286,-0.184 -0.458,-0.214 -0.177,-0.027 -0.335,-0.049 -0.479,-0.09 -0.286,-0.06 -0.511,-0.155 -0.7,-0.268 -0.381,-0.222 -0.59,-0.554 -0.782,-1.058 -0.201,-0.505 -0.37,-1.198 -0.72,-2.162 -0.177,-0.492 -0.402,-1.049 -0.707,-1.701 -0.261,-0.648 -0.844,-1.458 -1.34,-2.338 -3.469,2.172 -3.24,5.165 -2.73,7.948 0.439,2.748 1.076,5.313 -3.268,6.144 0.19,-3.389 -3.454,-7.536 -7.467,-11.46 -2.748,-0.298 -6.201,-1.37 -9.805,-2.688 -3.617,-1.292 -7.39,-2.859 -11.048,-3.68 l 3.658,-2.375 c -0.285,-0.64 -0.571,-1.272 -0.828,-1.928 l -0.388,-0.963 c -0.108,-0.301 -0.301,-0.737 -0.248,-0.833 l 0.041,-2.066 c -0.599,1.001 -1.242,1.943 -1.909,2.815 -0.335,0.438 -0.688,0.852 -1.039,1.262 l -0.524,0.625 -0.263,0.306 c -0.094,0.089 -0.097,0.304 -0.15,0.451 0.023,-0.113 0.023,-0.263 0.061,-0.376 l 0.182,-0.245 0.397,-0.576 c 0.286,-0.403 0.579,-0.87 0.865,-1.393 0.572,-1.047 1.111,-2.342 1.566,-3.61 0.065,-0.17 0.091,-0.299 0.11,-0.415 -0.154,-1.054 -0.813,-1.216 -1.476,-0.847 -0.671,0.362 -1.401,1.228 -2.025,2.041 -0.632,0.808 -1.145,1.589 -1.499,1.693 -0.703,-0.074 -1.393,-0.877 -1.923,-3.056 -0.438,0.301 -0.84,0.601 -1.179,0.918 -0.046,-1.946 -1.288,-3.272 -3.023,-4.748 -1.73,-1.468 -3.977,-3.124 -5.824,-5.557 -0.695,1.853 -1.333,3.736 -1.917,5.648 1.337,0.577 2.67,1.092 3.999,1.555 -2.46,1.57 -3.785,0.297 -4.752,-1.626 -0.984,-1.944 -1.567,-4.492 -3.103,-5.814 -0.82,-2.195 0.049,-3.674 1.04,-4.917 0.994,-1.258 2.112,-2.312 2.085,-3.599 -1.087,-0.889 -0.982,-3.441 -2.885,-3.411 -1.636,-0.882 -3.071,-0.136 -4.239,1.238 -1.166,1.36 -1.987,3.34 -2.57,4.545 1.321,-3.053 1.792,-4.601 1.678,-6.359 -0.075,-1.751 -0.789,-3.717 -1.031,-7.354 -2.636,0.652 -3.557,1.574 -3.641,2.718 0.01,-1.745 0.66,-3.463 2.708,-4.946 -1.262,-0.407 -2.519,-0.87 -3.774,-1.408 -1.678,-1.77 -1.924,-3.487 -1.414,-4.948 0.507,-1.468 1.773,-2.718 3.162,-3.903 1.393,-1.183 2.917,-2.294 4.032,-3.571 1.118,-1.295 1.818,-2.72 1.716,-4.814 -1.637,0.873 -1.253,-0.926 -0.538,-3.283 0.697,-2.362 1.83,-5.088 0.806,-7.045 -1.031,1.189 -2.764,0.113 -4.675,-1.369 -1.913,-1.463 -3.946,-3.379 -5.962,-3.01 1.014,-4.535 3.043,-4.451 5.092,-3.946 2.105,0.536 4.386,1.405 6.626,-0.668 -2.351,-0.691 -4.756,-1.271 -7.206,-1.734 3.087,-1.943 4.073,-1.578 4.966,-1.422 0.488,0.037 0.776,0.285 1.234,0.379 0.448,0.11 0.994,0.131 1.837,-0.021 -1.065,-0.284 -1.291,-0.725 -1.63,-1.071 -0.332,-0.365 -0.797,-0.625 -2.062,-0.867 0.316,-0.931 0.676,-1.101 0.695,-1.418 -0.049,-0.324 -0.131,-0.67 -0.463,-1.551 2.195,0.383 4.39,0.731 6.594,1.036 0.232,-0.301 0.214,-0.524 0.078,-0.893 -0.116,-0.463 -0.383,-0.881 -0.723,-1.27 -0.667,-0.763 -1.595,-1.4 -2.12,-1.9 -0.369,1.043 -0.409,2.775 -1.242,2.492 -2.608,-2.033 -1.491,-3.328 -0.305,-4.42 1.212,-1.136 2.454,-2.074 0.621,-4.72 1.665,1.64 4.122,3.365 5.573,0.738 -2.075,-0.313 -2.516,-1.781 -2.505,-3.332 0,-1.246 0.28,-2.463 0.046,-3.182 0.723,0.805 1.736,-0.426 3.047,-1.631 1.494,-1.396 3.398,-2.703 5.278,-1.48 -0.203,-2.229 -0.954,-2.57 -1.966,-2.428 -1.005,0.137 -2.21,0.766 -3.17,0.203 2.986,0.301 4.94,-1.883 6.905,-4.025 0.971,-1.076 1.935,-2.141 2.9,-2.895 0.24,-0.185 0.481,-0.345 0.722,-0.49 l 0.169,-0.103 0.098,-0.02 c 0.061,-0.012 0.124,-0.016 0.192,-0.016 0.267,0 0.587,0.069 0.926,0.284 -0.267,-0.311 -0.431,-0.559 -0.616,-0.743 1.298,0.649 2.567,0.825 4.125,0.87 0.746,-0.221 1.574,-0.577 2.662,-1.016 l 0.87,-0.352 c 0.151,-0.062 0.312,-0.127 0.466,-0.171 0.158,-0.04 0.393,-0.249 0.584,-0.362 0.826,-0.539 1.725,-1.043 2.704,-1.492 -1.442,0.008 -2.902,0.061 -4.364,0.162 0.618,-3.228 2.94,-3.109 5.219,-2.662 2.322,0.434 4.665,1.156 5.878,-0.715 -2.546,-1.107 -1.375,-2.681 -0.235,-4.092 1.122,-1.408 2.214,-2.711 -0.802,-3.851 3.252,-0.192 5.844,-0.852 8.841,-0.104 0.392,-0.367 0.786,-0.744 1.186,-1.099 -0.72,-0.356 -1.577,-0.594 -2.42,-0.791 -1.962,-0.461 -3.8,-0.737 -2.945,-2.657 1.674,-0.263 3.335,-0.449 4.969,-0.544 l -1.292,-2.754 c 1.518,1.582 4.445,-0.373 5.298,1.171 -1.574,-3.234 -1.506,-6.265 -3.122,-8.41 1.477,-0.332 2.615,-1.703 3.913,-2.799 1.284,-1.087 2.721,-1.88 4.446,-0.978 l -0.545,-1.656 c 2.638,2.386 4.619,1.892 6.531,1.57 1.898,-0.32 3.691,-0.473 5.254,2.617 0.146,-1.322 0.322,-2.648 0.537,-3.976 3.152,-0.295 4.318,3.685 5.531,6.162 1.325,-0.266 2.666,-0.488 4.021,-0.674 -0.276,-0.889 0.114,-1.645 0.836,-2.367 1.216,-1.237 3.309,-2.221 3.792,-3.453 0.252,-0.028 0.567,-0.053 0.925,-0.045 0.374,0.004 0.869,0.011 1.348,0.052 0.973,0.077 2.064,0.248 3.099,0.565 1.807,0.535 3.389,1.482 3.965,2.846 -0.452,-1.532 -0.452,-2.879 -0.682,-3.946 -0.278,-1.185 -0.986,-2.082 -3.664,-2.322 1.762,-3.269 4.168,-2.734 6.371,-1.338 2.286,1.404 4.206,3.582 7.194,3.811 l 1.499,-2.807 c 1.68,0.867 2.802,1.783 3.514,2.729 0.339,0.482 0.632,0.918 0.744,1.457 0.017,0.638 -0.044,1.291 -0.172,1.935 -0.54,1.93 -1.304,3.703 -2.166,5.44 0.566,0.193 1.13,0.388 1.683,0.595 0.493,-0.953 1.011,-2.158 1.657,-3.75 0.923,0.803 1.718,2.076 2.417,3.58 3.882,-1.615 7.908,-2.963 12.07,-3.961 -1.256,-40.703 -5.073,-126.437 -14.943,-131.07 M 41.705,2.078 c 0.023,-0.519 0.12,-0.967 0.26,-1.373 -5.791,-2.219 -12.064,-4.115 -10.434,-2.264 1.449,2.459 3.07,4.625 4.681,6.496 1.437,-0.783 2.594,-1.806 3.136,-3.542 1.581,1.109 2.01,2.212 2.432,3.191 0.407,0.986 0.805,1.861 2.082,2.658 C 44.4,5.828 44.013,2.881 41.705,2.078"
         style="fill:#000000;fill-opacity:1;fill-rule:evenodd;stroke:none"
         id="path218"
         inkscape:connector-curvature="0" /></g><g
       id="g220"
       transform="translate(735.5908,574.9228)"
       style="fill:#000000"><path
         d="m 0,0 59.824,0 0,-21.051 -36.918,0 0,-21.451 36.918,0 0,-20.725 -36.918,0 0,-22.019 36.918,0 0,-21.034 L 0,-106.28 0,0 Z"
         style="fill:#000000;fill-opacity:1;fill-rule:nonzero;stroke:none"
         id="path222"
         inkscape:connector-curvature="0" /></g><g
       id="g224"
       transform="translate(866.9941,565.2904)"
       style="fill:#000000"><path
         d="m 0,0 -14.256,-15.634 c -7.492,4.435 -12.901,6.648 -16.181,6.648 -2.532,0 -4.728,-0.948 -6.563,-2.868 -1.829,-1.924 -2.746,-4.21 -2.746,-6.837 0,-5.236 4.754,-9.779 14.243,-13.615 6.958,-2.971 12.228,-5.641 15.78,-8.044 3.557,-2.411 6.549,-5.739 8.952,-10.006 2.399,-4.263 3.601,-8.874 3.601,-13.83 0,-9.128 -3.686,-17.064 -11.041,-23.803 -7.375,-6.748 -16.078,-10.114 -26.105,-10.114 -11.011,0 -21.895,5.18 -32.629,15.539 L -51.888,-65 c 6.747,-6.971 13.059,-10.45 18.936,-10.45 2.756,0 5.403,1.236 7.932,3.668 2.548,2.458 3.814,5.016 3.814,7.717 0,5.554 -5.864,10.428 -17.571,14.665 -6.687,2.449 -11.437,4.732 -14.248,6.868 -2.808,2.127 -5.159,5.223 -7.07,9.313 -1.921,4.065 -2.885,8.237 -2.885,12.496 0,9.446 3.078,17.094 9.235,22.988 6.141,5.89 14.183,8.831 24.117,8.831 C -17.864,11.096 -7.986,7.398 0,0"
         style="fill:#000000;fill-opacity:1;fill-rule:nonzero;stroke:none"
         id="path226"
         inkscape:connector-curvature="0" /></g><g
       id="g228"
       transform="translate(871.46,574.9228)"
       style="fill:#000000"><path
         d="m 0,0 71.472,0 0,-22.597 -24.367,0 0,-83.683 -22.907,0 0,83.683 L 0,-22.597 0,0 Z"
         style="fill:#000000;fill-opacity:1;fill-rule:nonzero;stroke:none"
         id="path230"
         inkscape:connector-curvature="0" /></g><g
       id="g232"
       transform="translate(950.6396,574.9228)"
       style="fill:#000000"><path
         d="m 0,0 22.583,0 0,-65 c 0,-6.055 1.688,-10.907 5.013,-14.571 3.354,-3.678 7.758,-5.512 13.209,-5.512 6.261,0 11.132,1.856 14.571,5.551 3.445,3.702 5.167,8.905 5.167,15.664 l 0,63.868 22.512,0 0,-68.808 c 0,-6.044 -1.569,-12.318 -4.691,-18.828 -3.137,-6.507 -7.934,-11.479 -14.449,-14.92 -6.506,-3.453 -13.766,-5.179 -21.806,-5.179 -14.582,0 -25.236,4.051 -31.965,12.182 C 3.384,-87.434 0,-78.895 0,-69.948 L 0,0 Z"
         style="fill:#000000;fill-opacity:1;fill-rule:nonzero;stroke:none"
         id="path234"
         inkscape:connector-curvature="0" /></g><g
       id="g236"
       transform="translate(1070.9775,554.8402)"
       style="fill:#000000"><path
         d="m 0,0 0,-65.65 9.064,0 c 9.387,0 17.111,2.579 23.165,7.694 6.044,5.133 9.059,13.693 9.059,25.658 0,6.976 -1.455,13.129 -4.383,18.494 -2.893,5.378 -7.118,9.016 -12.659,10.932 C 18.705,-0.951 13.442,0 8.427,0 L 0,0 Z m -23.069,20.083 36.255,0 c 15.487,0 27.965,-4.892 37.399,-14.658 9.451,-9.765 14.178,-22.64 14.178,-38.613 0,-16.022 -4.877,-28.858 -14.622,-38.525 -9.735,-9.659 -22.696,-14.485 -38.89,-14.485 l -34.32,0 0,106.281 z"
         style="fill:#000000;fill-opacity:1;fill-rule:nonzero;stroke:none"
         id="path238"
         inkscape:connector-curvature="0" /></g><g
       id="g240"
       transform="translate(1180.3242,540.1059)"
       style="fill:#000000"><path
         d="m 0,0 -12.487,-31.32 25.249,0 L 0,0 Z m -8.875,34.817 17.744,0 43.308,-106.28 -23.044,0 -8.526,20.879 -40.784,0 -8.333,-20.879 -22.928,0 42.563,106.28 z"
         style="fill:#000000;fill-opacity:1;fill-rule:nonzero;stroke:none"
         id="path242"
         inkscape:connector-curvature="0" /></g><g
       id="g244"
       transform="translate(1311.375,574.9228)"
       style="fill:#000000"><path
         d="m 0,0 22.42,0 0,-106.28 -22.324,0 -48.6,68.794 0,-68.794 -22.895,0 0,106.28 22.648,0 L 0,-68.325 0,0 Z"
         style="fill:#000000;fill-opacity:1;fill-rule:nonzero;stroke:none"
         id="path246"
         inkscape:connector-curvature="0" /></g><g
       id="g248"
       transform="translate(1340.3789,574.9228)"
       style="fill:#000000"><path
         d="m 0,0 71.459,0 0,-22.597 -24.35,0 0,-83.683 -22.902,0 0,83.683 L 0,-22.597 0,0 Z"
         style="fill:#000000;fill-opacity:1;fill-rule:nonzero;stroke:none"
         id="path250"
         inkscape:connector-curvature="0" /></g><g
       id="g252"
       transform="translate(1419.7256,574.9228)"
       style="fill:#000000"><path
         d="m 0,0 59.829,0 0,-21.051 -36.913,0 0,-21.451 36.913,0 0,-20.725 -36.913,0 0,-22.019 36.913,0 0,-21.034 L 0,-106.28 0,0 Z"
         style="fill:#000000;fill-opacity:1;fill-rule:nonzero;stroke:none"
         id="path254"
         inkscape:connector-curvature="0" /></g><g
       id="g256"
       transform="translate(1551.1387,565.2904)"
       style="fill:#000000"><path
         d="m 0,0 -14.256,-15.634 c -7.501,4.435 -12.9,6.648 -16.189,6.648 -2.541,0 -4.702,-0.948 -6.545,-2.868 -1.839,-1.924 -2.756,-4.21 -2.756,-6.837 0,-5.236 4.74,-9.779 14.244,-13.615 6.971,-2.971 12.225,-5.641 15.776,-8.044 3.57,-2.411 6.552,-5.739 8.96,-10.006 2.394,-4.263 3.6,-8.874 3.6,-13.83 0,-9.128 -3.686,-17.064 -11.041,-23.803 -7.389,-6.748 -16.077,-10.114 -26.109,-10.114 -11.023,0 -21.887,5.18 -32.634,15.539 L -51.889,-65 c 6.739,-6.971 13.06,-10.45 18.942,-10.45 2.756,0 5.4,1.236 7.927,3.668 2.54,2.458 3.815,5.016 3.815,7.717 0,5.554 -5.848,10.428 -17.563,14.665 -6.705,2.449 -11.454,4.732 -14.261,6.868 -2.812,2.127 -5.15,5.223 -7.066,9.313 -1.916,4.065 -2.884,8.237 -2.884,12.496 0,9.446 3.082,17.094 9.235,22.988 6.139,5.89 14.191,8.831 24.111,8.831 C -17.852,11.096 -7.974,7.398 0,0"
         style="fill:#000000;fill-opacity:1;fill-rule:nonzero;stroke:none"
         id="path258"
         inkscape:connector-curvature="0" /></g><g
       id="g260"
       transform="translate(749.5244,443.6645)"
       style="fill:#000000"><path
         d="m 0,0 0,-36.107 c 10.573,0.099 18.415,1.591 23.513,4.496 5.099,2.879 7.657,7.507 7.657,13.859 0,4.809 -1.942,8.977 -5.788,12.479 C 21.52,-1.77 13.063,0 0,0 m -13.922,12.293 20.729,0 c 11.689,0 21.145,-2.75 28.319,-8.25 7.178,-5.523 10.77,-12.67 10.77,-21.461 0,-8.855 -3.794,-16.266 -11.373,-22.25 C 26.95,-45.676 15.427,-48.584 0,-48.428 l 0,-42.416 -13.922,0 0,103.137 z"
         style="fill:#000000;fill-opacity:1;fill-rule:nonzero;stroke:none"
         id="path262"
         inkscape:connector-curvature="0" /></g><g
       id="g264"
       transform="translate(806.2617,455.9574)"
       style="fill:#000000"><path
         d="m 0,0 57.154,0 0,-14.084 -43.229,0 0,-25.74 43.229,0 0,-13.92 -43.229,0 0,-35.459 43.229,0 0,-13.934 -57.154,0 L 0,0 Z"
         style="fill:#000000;fill-opacity:1;fill-rule:nonzero;stroke:none"
         id="path266"
         inkscape:connector-curvature="0" /></g><g
       id="g268"
       transform="translate(874.2588,455.9574)"
       style="fill:#000000"><path
         d="m 0,0 13.929,0 0,-89.203 33.586,0 0,-13.934 -47.515,0 L 0,0 Z"
         style="fill:#000000;fill-opacity:1;fill-rule:nonzero;stroke:none"
         id="path270"
         inkscape:connector-curvature="0" /></g><g
       id="g272"
       transform="translate(966.6943,427.7367)"
       style="fill:#000000"><path
         d="m 0,0 -16.472,-36.783 33.155,0 L 0,0 Z m 0.045,32.186 48.698,-107.102 -14.761,0 -11.977,26.404 -43.743,0 -11.837,-26.404 -14.667,0 48.287,107.102 z"
         style="fill:#000000;fill-opacity:1;fill-rule:nonzero;stroke:none"
         id="path274"
         inkscape:connector-curvature="0" /></g><g
       id="g276"
       transform="translate(1021.1035,459.1137)"
       style="fill:#000000"><path
         d="m 0,0 22.739,0 0,-83.377 31.333,0 0,-22.916 -54.072,0 L 0,0 Z"
         style="fill:#000000;fill-opacity:1;fill-rule:nonzero;stroke:none"
         id="path278"
         inkscape:connector-curvature="0" /></g><path
       d="m 1082.729,459.114 22.915,0 0,-106.293 -22.915,0 0,106.293 z"
       style="fill:#000000;fill-opacity:1;fill-rule:nonzero;stroke:none"
       id="path280"
       inkscape:connector-curvature="0" /><g
       id="g282"
       transform="translate(1142.1191,399.9398)"
       style="fill:#000000"><path
         d="m 0,0 0,-29.301 8.201,0 c 12.557,0 18.83,4.59 18.83,13.795 0,4.969 -1.529,8.815 -4.586,11.485 C 19.38,-1.328 14.996,0 9.325,0 L 0,0 Z m 0,41.357 0,-23.304 5.222,0 c 3.88,0 7.13,1.224 9.765,3.699 2.636,2.463 3.945,5.508 3.945,9.121 0,2.926 -1.291,5.402 -3.875,7.445 -2.567,2.026 -5.805,3.039 -9.659,3.039 l -5.398,0 z m -22.917,17.817 30.964,0 c 12.943,0 21.769,-2.695 26.523,-8.094 4.745,-5.392 7.106,-11.699 7.106,-18.92 0,-4.599 -0.859,-8.449 -2.58,-11.605 -1.743,-3.16 -4.518,-6.35 -8.345,-9.592 7.333,-2.529 12.535,-6.27 15.591,-11.209 3.049,-4.943 4.577,-10.221 4.577,-15.85 0,-9.779 -3.361,-17.383 -10.04,-22.83 -6.684,-5.459 -16.092,-8.193 -28.22,-8.193 l -35.576,0 0,106.293 z"
         style="fill:#000000;fill-opacity:1;fill-rule:nonzero;stroke:none"
         id="path284"
         inkscape:connector-curvature="0" /></g><g
       id="g286"
       transform="translate(1199.9277,459.1137)"
       style="fill:#000000"><path
         d="m 0,0 59.829,0 0,-21.055 -36.914,0 0,-21.433 36.914,0 0,-20.727 -36.914,0 0,-22.027 36.914,0 0,-21.051 -59.829,0 L 0,0 Z"
         style="fill:#000000;fill-opacity:1;fill-rule:nonzero;stroke:none"
         id="path288"
         inkscape:connector-curvature="0" /></g><g
       id="g290"
       transform="translate(1294.5234,440.1684)"
       style="fill:#000000"><path
         d="m 0,0 0,-27.67 4.95,0 c 11.971,0 17.951,4.879 17.951,14.641 0,3.984 -1.554,7.174 -4.68,9.508 C 15.12,-1.18 10.802,0 5.256,0 L 0,0 Z m -23.072,18.945 34.998,0 c 10.652,0 19.058,-2.806 25.258,-8.422 6.175,-5.603 9.278,-13.171 9.278,-22.722 0,-5.463 -1.42,-11.121 -4.267,-17.012 -2.841,-5.863 -8.078,-10.467 -15.689,-13.822 l 29.736,-44.315 -26.318,0 -27.515,41.121 -2.587,0 0,-41.121 -22.894,0 0,106.293 z"
         style="fill:#000000;fill-opacity:1;fill-rule:nonzero;stroke:none"
         id="path292"
         inkscape:connector-curvature="0" /></g><g
       id="g294"
       transform="translate(1383.416,439.0277)"
       style="fill:#000000"><path
         d="m 0,0 0,-65.633 9.059,0 c 9.396,0 17.128,2.549 23.17,7.686 6.037,5.14 9.067,13.67 9.067,25.658 0,6.953 -1.459,13.133 -4.382,18.498 C 34.01,-8.428 29.787,-4.783 24.245,-2.867 18.713,-0.945 13.438,0 8.418,0 L 0,0 Z m -23.062,20.086 36.254,0 c 15.497,0 27.958,-4.877 37.392,-14.656 9.451,-9.776 14.18,-22.633 14.18,-38.598 0,-16.051 -4.88,-28.887 -14.616,-38.545 -9.752,-9.65 -22.709,-14.494 -38.901,-14.494 l -34.309,0 0,106.293 z"
         style="fill:#000000;fill-opacity:1;fill-rule:nonzero;stroke:none"
         id="path296"
         inkscape:connector-curvature="0" /></g><g
       id="g298"
       transform="translate(1492.7617,424.3187)"
       style="fill:#000000"><path
         d="m 0,0 -12.487,-31.342 25.258,0 L 0,0 Z m -8.866,34.795 17.736,0 43.316,-106.293 -23.053,0 -8.526,20.9 -40.784,0 -8.323,-20.9 -22.938,0 42.572,106.293 z"
         style="fill:#000000;fill-opacity:1;fill-rule:nonzero;stroke:none"
         id="path300"
         inkscape:connector-curvature="0" /></g><g
       id="g302"
       transform="translate(1576.1309,439.0277)"
       style="fill:#000000"><path
         d="m 0,0 0,-65.633 9.059,0 c 9.39,0 17.124,2.549 23.165,7.686 6.046,5.14 9.059,13.67 9.059,25.658 0,6.953 -1.446,13.133 -4.37,18.498 -2.915,5.363 -7.135,9.008 -12.672,10.924 C 18.708,-0.945 13.442,0 8.421,0 L 0,0 Z m -23.071,20.086 36.25,0 c 15.492,0 27.975,-4.877 37.4,-14.656 9.456,-9.776 14.184,-22.633 14.184,-38.598 0,-16.051 -4.879,-28.887 -14.626,-38.545 -9.74,-9.65 -22.701,-14.494 -38.886,-14.494 l -34.322,0 0,106.293 z"
         style="fill:#000000;fill-opacity:1;fill-rule:nonzero;stroke:none"
         id="path304"
         inkscape:connector-curvature="0" /></g><g
       id="g306"
       transform="translate(1651.4561,459.1137)"
       style="fill:#000000"><path
         d="m 0,0 59.82,0 0,-21.055 -36.913,0 0,-21.433 36.913,0 0,-20.727 -36.913,0 0,-22.027 36.913,0 0,-21.051 -59.82,0 L 0,0 Z"
         style="fill:#000000;fill-opacity:1;fill-rule:nonzero;stroke:none"
         id="path308"
         inkscape:connector-curvature="0" /></g></g></svg>